<svg xmlns="http://www.w3.org/2000/svg" viewBox="0 0 1200 675" width="1200" height="675">
  <rect width="1200" height="675" rx="16" fill="#0B0F19"/>
  <rect x="2" y="2" width="1196" height="671" rx="14" fill="none" stroke="#1E293B" stroke-width="2"/>
  
  <!-- Header -->
  <rect x="0" y="0" width="1200" height="48" rx="16" fill="#060A14"/>
  <circle cx="30" cy="24" r="6" fill="#EF4444"/>
  <circle cx="50" cy="24" r="6" fill="#F59E0B"/>
  <circle cx="70" cy="24" r="6" fill="#10B981"/>
  <text x="600" y="30" fill="#64748B" font-family="sans-serif" font-size="14" text-anchor="middle" font-weight="500">Adaptive Soundtrack AI — Conditional Diffusion Model for Music</text>
  
  <!-- Waveform & DDPM Sampler Panel -->
  <rect x="40" y="80" width="1120" height="540" rx="12" fill="#0F172A" stroke="#1E293B" stroke-width="1.5"/>
  <text x="70" y="125" fill="#E2E8F0" font-family="sans-serif" font-size="20" font-weight="700">U-Net Backbone with FiLM Genre Conditioning</text>
  <text x="70" y="150" fill="#38BDF8" font-family="sans-serif" font-size="14">DDIM Sampling: 1000 steps → 50 steps inference acceleration</text>
  
  <!-- Audio Waveform Visualization -->
  <g transform="translate(70, 180)">
    <rect x="0" y="0" width="1060" height="220" rx="10" fill="#060A14" stroke="#1E293B" stroke-width="1"/>
    
    <!-- Audio bars -->
    <path d="M 30 110 L 30 70 M 50 110 L 50 40 M 70 110 L 70 160 M 90 110 L 90 180 M 110 110 L 110 30 M 130 110 L 130 90 M 150 110 L 150 150 M 170 110 L 170 20 M 190 110 L 190 170 M 210 110 L 210 60 M 230 110 L 230 140 M 250 110 L 250 30 M 270 110 L 270 180 M 290 110 L 290 70 M 310 110 L 310 160 M 330 110 L 330 40 M 350 110 L 350 190 M 370 110 L 370 20 M 390 110 L 390 150 M 410 110 L 410 80 M 430 110 L 430 170 M 450 110 L 450 30 M 470 110 L 470 160 M 490 110 L 490 50 M 510 110 L 510 180 M 530 110 L 530 40 M 550 110 L 550 190 M 570 110 L 570 30 M 590 110 L 590 150 M 610 110 L 610 80 M 630 110 L 630 170 M 650 110 L 650 30 M 670 110 L 670 160 M 690 110 L 690 50 M 710 110 L 710 180 M 730 110 L 730 40 M 750 110 L 750 190 M 770 110 L 770 20 M 790 110 L 790 150 M 810 110 L 810 80 M 830 110 L 830 170 M 850 110 L 850 30 M 870 110 L 870 160 M 890 110 L 890 50 M 910 110 L 910 180 M 930 110 L 930 40 M 950 110 L 950 190 M 970 110 L 970 30 M 990 110 L 990 150 M 1010 110 L 1010 80 M 1030 110 L 1030 170" stroke="#38BDF8" stroke-width="4" stroke-linecap="round"/>
  </g>
  
  <!-- Info Cards below -->
  <rect x="70" y="430" width="330" height="150" rx="8" fill="#1E293B"/>
  <text x="95" y="470" fill="#64748B" font-family="sans-serif" font-size="13">BACKBONE ARCHITECTURE</text>
  <text x="95" y="505" fill="#E2E8F0" font-family="sans-serif" font-size="22" font-weight="700">Conditional U-Net</text>
  <text x="95" y="535" fill="#38BDF8" font-family="sans-serif" font-size="14">FiLM Genre Layering</text>

  <rect x="435" y="430" width="330" height="150" rx="8" fill="#1E293B"/>
  <text x="460" y="470" fill="#64748B" font-family="sans-serif" font-size="13">INFERENCE SPEEDUP</text>
  <text x="460" y="505" fill="#10B981" font-family="sans-serif" font-size="22" font-weight="700">20x Fast Sampling</text>
  <text x="460" y="535" fill="#94A3B8" font-family="sans-serif" font-size="14">DDIM 50-step trajectory</text>

  <rect x="800" y="430" width="330" height="150" rx="8" fill="#1E293B"/>
  <text x="825" y="470" fill="#64748B" font-family="sans-serif" font-size="13">DATASET BENCHMARK</text>
  <text x="825" y="505" fill="#E2E8F0" font-family="sans-serif" font-size="22" font-weight="700">LPD-5 Polyphonic</text>
  <text x="825" y="535" fill="#38BDF8" font-family="sans-serif" font-size="14">Low validation loss</text>
</svg>
