<svg xmlns="http://www.w3.org/2000/svg" viewBox="0 0 1200 675" width="1200" height="675">
  <rect width="1200" height="675" rx="16" fill="#0B0F19"/>
  <rect x="2" y="2" width="1196" height="671" rx="14" fill="none" stroke="#1E293B" stroke-width="2"/>
  
  <!-- Window Header -->
  <rect x="0" y="0" width="1200" height="48" rx="16" fill="#060A14"/>
  <circle cx="30" cy="24" r="6" fill="#EF4444"/>
  <circle cx="50" cy="24" r="6" fill="#F59E0B"/>
  <circle cx="70" cy="24" r="6" fill="#10B981"/>
  <text x="600" y="30" fill="#64748B" font-family="sans-serif" font-size="14" text-anchor="middle" font-weight="500">SRE-Bot — Autonomous Incident Remediation Benchmark</text>
  
  <!-- Main Grid -->
  <rect x="40" y="80" width="360" height="540" rx="12" fill="#0F172A" stroke="#1E293B" stroke-width="1.5"/>
  <text x="65" y="120" fill="#38BDF8" font-family="sans-serif" font-size="18" font-weight="700">Active Incident Stream</text>
  
  <rect x="65" y="145" width="310" height="90" rx="8" fill="#1E293B" opacity="0.6"/>
  <circle cx="95" cy="180" r="10" fill="#EF4444"/>
  <text x="120" y="175" fill="#E2E8F0" font-family="sans-serif" font-size="14" font-weight="600">CRITICAL: DB Pool Exhausted</text>
  <text x="120" y="198" fill="#64748B" font-family="sans-serif" font-size="12">Root cause analysis: 98.4% match</text>

  <rect x="65" y="250" width="310" height="90" rx="8" fill="#1E293B" opacity="0.4"/>
  <circle cx="95" cy="285" r="10" fill="#F59E0B"/>
  <text x="120" y="280" fill="#E2E8F0" font-family="sans-serif" font-size="14" font-weight="600">WARN: Memory Spike Node-04</text>
  <text x="120" y="303" fill="#64748B" font-family="sans-serif" font-size="12">Agent evaluated: Suppressed</text>
  
  <rect x="65" y="355" width="310" height="235" rx="8" fill="#060A14"/>
  <text x="85" y="390" fill="#38BDF8" font-family="monospace" font-size="13">$ pytest --benchmark-eval</text>
  <text x="85" y="420" fill="#10B981" font-family="monospace" font-size="12">[PASS] RewardModel v2</text>
  <text x="85" y="445" fill="#94A3B8" font-family="monospace" font-size="12">  - Action Trajectory: 4 steps</text>
  <text x="85" y="470" fill="#94A3B8" font-family="monospace" font-size="12">  - Isolation Latency: 42ms</text>
  <text x="85" y="495" fill="#38BDF8" font-family="monospace" font-size="12">  - Reward Score: 0.962</text>

  <!-- Right Dashboard Panel -->
  <rect x="430" y="80" width="730" height="540" rx="12" fill="#0F172A" stroke="#1E293B" stroke-width="1.5"/>
  <text x="460" y="120" fill="#E2E8F0" font-family="sans-serif" font-size="20" font-weight="700">Adversarial Evaluation Environment</text>
  
  <!-- Line chart simulation -->
  <path d="M 460 380 Q 560 320 660 350 T 860 220 T 1110 180" fill="none" stroke="#38BDF8" stroke-width="4"/>
  <path d="M 460 380 Q 560 320 660 350 T 860 220 T 1110 180 L 1110 420 L 460 420 Z" fill="url(#blue-grad)" opacity="0.2"/>
  
  <defs>
    <linearGradient id="blue-grad" x1="0" y1="0" x2="0" y2="1">
      <stop offset="0%" stop-color="#38BDF8"/>
      <stop offset="100%" stop-color="#38BDF8" stop-opacity="0"/>
    </linearGradient>
  </defs>

  <rect x="460" y="460" width="210" height="130" rx="8" fill="#1E293B"/>
  <text x="480" y="495" fill="#64748B" font-family="sans-serif" font-size="13">CONCURRENT REQUESTS</text>
  <text x="480" y="535" fill="#38BDF8" font-family="sans-serif" font-size="32" font-weight="800">100+</text>
  
  <rect x="690" y="460" width="210" height="130" rx="8" fill="#1E293B"/>
  <text x="710" y="495" fill="#64748B" font-family="sans-serif" font-size="13">MEAN LATENCY</text>
  <text x="710" y="535" fill="#10B981" font-family="sans-serif" font-size="32" font-weight="800">&lt; 100ms</text>
  
  <rect x="920" y="460" width="240" height="130" rx="8" fill="#1E293B"/>
  <text x="940" y="495" fill="#64748B" font-family="sans-serif" font-size="13">ACCURACY SCORE</text>
  <text x="940" y="535" fill="#E2E8F0" font-family="sans-serif" font-size="32" font-weight="800">96.8%</text>
</svg>
